<svg width="406" height="129" viewBox="0 0 406 129" fill="none" xmlns="http://www.w3.org/2000/svg">
<g clip-path="url(#clip0_278_202)">
<path fill-rule="evenodd" clip-rule="evenodd" d="M7.49696 87.6911C26.7742 119.801 64.789 116.105 82.0818 96.9994C82.1771 96.8931 82.1771 96.2438 81.8 96.3375C63.9154 100.808 47.7154 95.8358 36.7653 85.4659C13.1889 63.1322 15.6943 30.8365 33.9781 11.352C37.2112 7.9051 41.4782 5.21586 45.3479 2.78473C45.8606 2.46627 45.4917 1.66699 44.9161 1.83559C12.2179 11.4873 -11.5369 55.9866 7.49696 87.6911Z" fill="#0078A8"/>
<path fill-rule="evenodd" clip-rule="evenodd" d="M72.5931 0.519561C35.8734 1.60816 19.9855 37.2591 27.451 62.1907C27.4917 62.3281 28.0409 62.6529 28.1483 62.2719C33.3234 44.1322 45.6133 32.2118 59.835 27.6595C90.4594 17.858 116.446 36.2371 123.737 62.2365C125.027 66.8387 125.164 71.9736 125.276 76.6319C125.292 77.2458 126.149 77.3187 126.291 76.7235C134.501 42.8186 108.851 -0.554466 72.5931 0.519561Z" fill="#EF4056"/>
<path fill-rule="evenodd" clip-rule="evenodd" d="M113.542 102.098C130.985 68.8989 108.862 36.9423 84.0999 31.1186C83.9639 31.0852 83.4167 31.4121 83.6864 31.6991C96.3959 45.3682 100.304 62.2612 97.0323 77.183C89.9863 109.319 61.4944 123.235 35.9191 116.72C31.393 115.567 26.9941 113.119 23.009 110.892C22.484 110.599 21.9935 111.323 22.4232 111.75C46.9139 136.001 96.3209 134.877 113.542 102.098Z" fill="#FFD530"/>
<path fill-rule="evenodd" clip-rule="evenodd" d="M250.758 35.2821C250.758 29.606 255.011 25.1519 260.755 25.1519C264.383 25.1519 266.728 26.6629 268.39 28.8172C268.582 29.0627 268.529 29.4271 268.285 29.6186L265.297 31.9996C265.062 32.185 264.733 32.1434 264.534 31.9164C263.523 30.7717 262.33 30.0785 260.701 30.0785C258.047 30.0785 256.177 32.3868 256.177 35.2821C256.175 38.2044 258.047 40.4858 260.701 40.4858C262.49 40.4858 263.613 39.7135 264.65 38.5167C264.845 38.2961 265.162 38.2524 265.398 38.4232L268.472 40.6709C268.728 40.8584 268.787 41.233 268.593 41.4869C266.84 43.7745 264.474 45.4106 260.541 45.4106C255.119 45.4106 250.755 41.1539 250.758 35.2821ZM152.589 35.2824C152.589 29.6063 156.846 25.1519 162.593 25.1519C166.219 25.1519 168.562 26.6632 170.224 28.8175C170.415 29.0629 170.364 29.4273 170.121 29.6188L167.129 31.9999C166.896 32.1852 166.566 32.1436 166.365 31.9167C165.356 30.772 164.164 30.0787 162.536 30.0787C159.882 30.0787 158.012 32.3871 158.012 35.2824C158.012 38.2047 159.882 40.486 162.536 40.486C164.324 40.486 165.449 39.7137 166.487 38.5169C166.679 38.2963 166.997 38.2527 167.234 38.4232L170.306 40.6712C170.563 40.8586 170.622 41.2332 170.429 41.4872C168.676 43.7747 166.31 45.4106 162.372 45.4106C156.952 45.4106 152.589 41.1541 152.589 35.2824ZM184.943 34.8929L177.84 42.3237V44.5217C177.84 44.8005 177.625 45.0234 177.353 45.0234H173.559C173.289 45.0234 173.07 44.8005 173.07 44.5217L173.072 26.5733C173.072 26.2945 173.289 26.0719 173.561 26.0719H177.353C177.625 26.0719 177.84 26.2945 177.84 26.5733V36.3125L184.943 28.9109V26.5733C184.943 26.2945 185.157 26.0719 185.429 26.0719H189.222C189.493 26.0719 189.712 26.2945 189.712 26.5733V44.5217C189.712 44.8005 189.493 45.0234 189.222 45.0234H185.427C185.157 45.0234 184.941 44.8005 184.941 44.5217L184.943 34.8929ZM206.653 26.5733C206.653 26.2943 206.438 26.0716 206.165 26.0716H194.754C194.483 26.0716 194.268 26.2943 194.268 26.5733V44.5237C194.268 44.8005 194.483 45.0232 194.754 45.0232H201.257C202.644 45.0232 204.131 44.7733 205.354 44.1052C206.923 43.2705 208.088 41.7116 208.088 39.1807C208.088 36.4248 206.896 34.9761 205.354 34.2245C203.888 33.5023 202.129 33.4191 200.801 33.4191H199.037V30.4136H206.165C206.438 30.4136 206.653 30.1907 206.653 29.9119V26.5733ZM223.806 34.8929L216.705 42.3235V44.5215C216.705 44.8005 216.488 45.0232 216.216 45.0232H212.422C212.15 45.0232 211.938 44.8005 211.938 44.5215V26.5733C211.938 26.2943 212.152 26.0716 212.424 26.0716H216.216C216.488 26.0716 216.705 26.2943 216.705 26.5733V36.3123L223.806 28.9107V26.5733C223.806 26.2943 224.023 26.0716 224.294 26.0716H228.087C228.358 26.0716 228.577 26.2943 228.577 26.5733V44.5215C228.577 44.8005 228.358 45.0232 228.087 45.0232H224.292C224.023 45.0232 223.806 44.8005 223.806 44.5215V34.8929ZM245.992 27.5473C244.639 26.3777 243.009 26.0716 241.494 26.0716H233.606C233.336 26.0716 233.117 26.2943 233.117 26.5733V44.5237C233.117 44.8005 233.336 45.0232 233.606 45.0232H237.398C237.67 45.0232 237.887 44.8005 237.887 44.5237V39.7093H241.626C243.062 39.7093 244.497 39.4303 245.802 38.3729C247.318 37.1761 248.294 35.228 248.294 32.8904C248.294 30.6362 247.398 28.7441 245.992 27.5473ZM292.977 45.0261C293.411 45.0261 293.681 44.8595 293.791 44.4703L294.63 41.6021H300.294L301.107 44.4703C301.215 44.8595 301.487 45.0261 301.921 45.0261H305.77C306.095 45.0261 306.202 44.8595 306.202 44.6369C306.202 44.5441 306.184 44.4691 306.161 44.382L306.15 44.3308L300.323 26.4929C300.214 26.1306 299.971 25.9912 299.562 25.9912H295.551C295.146 25.9912 294.902 26.1306 294.794 26.4929L288.856 44.3308L288.845 44.382C288.822 44.4691 288.803 44.5441 288.803 44.6369C288.803 44.8595 288.911 45.0261 289.238 45.0261H292.977ZM308.419 32.4179C308.419 30.4136 309.178 28.5484 310.561 27.4351C311.779 26.4629 313.487 26.0716 315.302 26.0716H323.514C323.786 26.0716 324.003 26.2943 324.003 26.5733V44.5237C324.003 44.8026 323.784 45.0232 323.514 45.0232H319.72C319.448 45.0232 319.231 44.8026 319.231 44.5237V38.8453H316.33L313.434 44.5237C313.215 44.94 312.943 45.0232 312.513 45.0232H308.335C308.065 45.0232 307.903 44.8858 307.903 44.636C307.903 44.4945 307.955 44.3281 308.065 44.1324L311.562 37.9004C311.183 37.6778 310.803 37.428 310.451 37.0929C308.986 35.7567 308.419 34.0872 308.419 32.4179ZM153.286 73.4591C153.286 73.7379 153.503 73.9608 153.774 73.9608H157.569C157.84 73.9608 158.057 73.7379 158.057 73.4591V59.3509H165.184C165.456 59.3509 165.673 59.1283 165.673 58.8495V55.5107C165.673 55.2319 165.456 55.009 165.184 55.009H153.774C153.505 55.009 153.288 55.2319 153.288 55.5107L153.286 73.4591ZM182.966 55.009C183.238 55.009 183.455 55.2319 183.455 55.5107V58.8495C183.455 59.1283 183.238 59.3509 182.966 59.3509H173.97V62.2442H181.529C181.801 62.2442 182.017 62.4691 182.017 62.7459L182.016 66.0865C182.016 66.3635 181.801 66.5861 181.529 66.5861H173.97V69.6188H182.966C183.236 69.6188 183.453 69.8435 183.453 70.1205V73.4611C183.453 73.7379 183.236 73.9608 182.966 73.9608H169.685C169.413 73.9608 169.196 73.7379 169.196 73.4611L169.198 55.5107C169.198 55.2319 169.415 55.009 169.685 55.009H182.966ZM203.916 55.5107C203.916 55.2319 203.701 55.009 203.429 55.009H199.635C199.363 55.009 199.148 55.2319 199.148 55.5107V62.2442H192.098V55.5107C192.098 55.2319 191.883 55.009 191.613 55.009H187.819C187.547 55.009 187.33 55.2319 187.33 55.5107V73.4611C187.33 73.7379 187.547 73.9608 187.817 73.9608H191.611C191.883 73.9608 192.098 73.7379 192.098 73.4611V66.5861H199.146V73.4611C199.146 73.7379 199.363 73.9608 199.635 73.9608H203.429C203.699 73.9608 203.914 73.7379 203.914 73.4611L203.916 55.5107ZM222.223 55.009C222.495 55.009 222.712 55.2319 222.712 55.5107V58.8495C222.712 59.1283 222.495 59.3509 222.223 59.3509H213.227V62.2442H220.788C221.057 62.2442 221.274 62.4691 221.274 62.7459V66.0865C221.274 66.3635 221.057 66.5861 220.786 66.5861H213.227V69.6188H222.223C222.493 69.6188 222.709 69.8435 222.709 70.1205V73.4611C222.709 73.7379 222.493 73.9608 222.223 73.9608H208.942C208.67 73.9608 208.455 73.7379 208.455 73.4611V55.5107C208.455 55.2319 208.672 55.009 208.944 55.009H222.223ZM239.464 56.4849C238.111 55.3151 236.481 55.009 234.966 55.009H227.078C226.808 55.009 226.589 55.2319 226.589 55.5107V73.4611C226.589 73.7379 226.808 73.9608 227.078 73.9608H230.87C231.142 73.9608 231.361 73.7379 231.361 73.4611V68.6467H235.098C236.536 68.6467 237.971 68.3679 239.272 67.3105C240.79 66.1137 241.768 64.1653 241.768 61.828C241.768 59.5738 240.872 57.6817 239.464 56.4849ZM257.345 63.8289L250.243 71.2597V73.4577C250.243 73.7365 250.026 73.9594 249.754 73.9594H245.96C245.688 73.9594 245.473 73.7365 245.473 73.4577V55.5093C245.473 55.2305 245.69 55.0076 245.962 55.0076H249.754C250.026 55.0076 250.243 55.2305 250.243 55.5093V65.2485L257.345 57.8469V55.5093C257.345 55.2305 257.56 55.0076 257.83 55.0076H261.624C261.896 55.0076 262.115 55.2305 262.115 55.5093L262.113 73.4577C262.113 73.7365 261.896 73.9594 261.624 73.9594H257.83C257.56 73.9594 257.343 73.7365 257.343 73.4577L257.345 63.8289ZM279.535 56.4849C278.179 55.3151 276.552 55.009 275.037 55.009H267.149C266.877 55.009 266.662 55.2319 266.662 55.5107V73.4611C266.662 73.7379 266.877 73.9608 267.149 73.9608H270.941C271.213 73.9608 271.43 73.7379 271.43 73.4611V68.6467H275.169C276.607 68.6467 278.042 68.3679 279.343 67.3105C280.863 66.1137 281.839 64.1653 281.839 61.828C281.839 59.5738 280.943 57.6817 279.535 56.4849ZM287.315 69.7603C288.127 69.7603 288.751 69.7041 289.293 69.4815C289.725 69.3148 290.079 69.0652 290.431 68.7029L283.928 55.7064C283.793 55.4275 283.818 55.009 284.307 55.009H288.563C288.995 55.009 289.238 55.2609 289.377 55.5669L292.872 63.6929L295.88 55.5669C296.015 55.2339 296.257 55.009 296.691 55.009H300.73C301.217 55.009 301.247 55.4275 301.112 55.7064L295.85 68.2305C295.174 69.8435 294.36 71.0133 293.411 71.902C291.786 73.4341 289.807 73.9628 287.857 73.9628H286.175C285.905 73.9628 285.69 73.74 285.69 73.4611V70.262C285.69 69.9829 285.905 69.7603 286.175 69.7603H287.315ZM312.184 66.5882C313.133 71.2632 317.279 74.2127 321.994 74.2127C327.334 74.2127 331.969 70.4556 331.969 64.5007C331.969 58.5727 327.336 54.7324 321.994 54.7324C317.334 54.7324 313.242 57.6275 312.211 62.2463H308.794V55.5128C308.794 55.2339 308.582 55.0092 308.31 55.0092H304.515C304.243 55.0092 304.026 55.2339 304.026 55.5128V73.4611C304.026 73.7402 304.243 73.9628 304.515 73.9628H308.307C308.579 73.9628 308.794 73.7402 308.794 73.4611V66.5882H312.184ZM335.786 73.4611V55.5107C335.786 55.2339 336.003 55.009 336.273 55.009H340.07C340.339 55.009 340.557 55.2339 340.557 55.5107V69.6209H346.358V55.5107C346.358 55.2339 346.573 55.009 346.842 55.009H350.639C350.911 55.009 351.126 55.2339 351.126 55.5107L351.123 69.6209H356.927V55.5107C356.927 55.2339 357.142 55.009 357.416 55.009H361.206C361.48 55.009 361.695 55.2339 361.695 55.5107V69.6209H365.871C366.141 69.6209 366.355 69.8435 366.355 70.1203V77.7468C366.355 78.0257 366.141 78.2465 365.871 78.2465H362.077C361.805 78.2465 361.587 78.0257 361.587 77.7468V73.9628H336.273C336.003 73.9628 335.786 73.74 335.786 73.4611ZM372.12 73.9546C372.554 73.9546 372.822 73.7882 372.934 73.3989L373.773 70.5306H379.437L380.248 73.3989C380.358 73.7882 380.63 73.9546 381.064 73.9546H384.913C385.235 73.9546 385.345 73.7882 385.345 73.5653C385.345 73.4817 385.329 73.4136 385.309 73.3365L385.302 73.3066L385.293 73.2595L379.466 55.4213C379.357 55.0593 379.114 54.9199 378.705 54.9199H374.694C374.289 54.9199 374.045 55.0593 373.937 55.4213L367.997 73.2595C367.992 73.2833 367.987 73.3059 367.981 73.3276C367.962 73.4085 367.946 73.4785 367.946 73.5653C367.946 73.7882 368.054 73.9546 368.381 73.9546H372.12ZM387.562 61.3555C387.562 59.3509 388.319 57.486 389.702 56.3724C390.922 55.4003 392.63 55.009 394.445 55.009H402.657C402.929 55.009 403.146 55.2319 403.146 55.5107V73.4611C403.146 73.74 402.927 73.9608 402.657 73.9608H398.863C398.591 73.9608 398.374 73.74 398.374 73.4611V67.7829H395.473L392.575 73.4611C392.358 73.8773 392.086 73.9608 391.654 73.9608H387.478C387.208 73.9608 387.046 73.8234 387.046 73.5715C387.046 73.4321 387.098 73.2655 387.208 73.0719L390.703 66.838C390.323 66.6152 389.946 66.3656 389.594 66.0305C388.131 64.694 387.562 63.0248 387.562 61.3555ZM170.821 93.4648C170.821 99.3365 175.457 103.177 180.821 103.177C186.16 103.177 190.794 99.42 190.796 93.4648C190.796 87.5368 186.16 83.6965 180.821 83.6965C175.457 83.6965 170.821 87.5368 170.821 93.4648ZM213.986 102.399C213.986 102.678 213.769 102.9 213.497 102.9H209.867C209.595 102.9 209.378 102.678 209.378 102.399L209.38 92.4639L206.532 97.8901C206.342 98.2234 206.179 98.3919 205.772 98.3919H202.981C202.577 98.3919 202.413 98.2234 202.223 97.8901L199.217 92.4639L199.215 102.399C199.215 102.678 198.998 102.9 198.728 102.9H195.096C194.824 102.9 194.607 102.678 194.607 102.399V84.4483C194.607 84.1715 194.826 83.9466 195.098 83.9466H198.917C199.298 83.9466 199.541 84.0028 199.786 84.4483L204.284 92.7427L208.782 84.4483C209.027 84.0028 209.271 83.9466 209.65 83.9466H213.499C213.771 83.9466 213.986 84.1715 213.986 84.4483V102.399ZM229.926 102.397C229.926 102.676 230.143 102.898 230.413 102.898H234.207C234.481 102.898 234.694 102.676 234.694 102.397L234.696 84.4483C234.696 84.1692 234.481 83.9466 234.207 83.9466H219.033C218.76 83.9466 218.547 84.1692 218.547 84.4483L218.545 102.397C218.545 102.676 218.76 102.898 219.033 102.898H222.826C223.097 102.898 223.312 102.676 223.312 102.397V88.2885H229.928L229.926 102.397ZM242.573 102.339C242.465 102.728 242.195 102.894 241.763 102.894H238.022C237.695 102.894 237.587 102.728 237.587 102.505C237.587 102.414 237.606 102.342 237.626 102.257L237.64 102.199L243.576 84.3612C243.683 83.9989 243.93 83.8595 244.335 83.8595H248.349C248.753 83.8595 248.998 83.9989 249.11 84.3612L254.931 102.199L254.947 102.257C254.968 102.342 254.984 102.414 254.984 102.505C254.984 102.728 254.877 102.894 254.554 102.894H250.703C250.271 102.894 249.999 102.728 249.891 102.339L249.078 99.4705H243.414L242.573 102.339ZM274.47 84.4483C274.47 84.1692 274.253 83.9466 273.981 83.9466H270.186C269.914 83.9466 269.699 84.1692 269.699 84.4483V91.1818H262.653V84.4483C262.653 84.1692 262.438 83.9466 262.166 83.9466H258.371C258.099 83.9466 257.885 84.1692 257.885 84.4483V102.399C257.885 102.676 258.099 102.898 258.369 102.898H262.163C262.435 102.898 262.653 102.676 262.653 102.399V95.5235H269.697V102.399C269.697 102.676 269.914 102.898 270.186 102.898H273.981C274.25 102.898 274.467 102.676 274.467 102.399L274.47 84.4483ZM290.886 92.7679L283.786 100.198V102.397C283.786 102.676 283.569 102.898 283.297 102.898H279.503C279.231 102.898 279.018 102.676 279.018 102.397V84.4483C279.018 84.1692 279.233 83.9466 279.505 83.9466H283.297C283.569 83.9466 283.786 84.1692 283.786 84.4483V94.1873L290.886 86.7857V84.4483C290.886 84.1692 291.103 83.9466 291.375 83.9466H295.167C295.439 83.9466 295.658 84.1692 295.658 84.4483V102.397C295.658 102.676 295.439 102.898 295.167 102.898H291.373C291.103 102.898 290.886 102.676 290.886 102.397V92.7679ZM301.667 85.31C300.285 86.4236 299.526 88.2885 299.526 90.2929C299.526 91.9624 300.095 93.6316 301.56 94.9679C301.912 95.3029 302.291 95.5528 302.671 95.7754L299.174 102.009C299.066 102.203 299.009 102.369 299.009 102.511C299.009 102.761 299.174 102.898 299.443 102.898H303.619C304.049 102.898 304.321 102.815 304.541 102.399L307.439 96.7205H310.337V102.399C310.337 102.678 310.554 102.898 310.826 102.898H314.621C314.89 102.898 315.11 102.678 315.11 102.399V84.4483C315.11 84.1692 314.893 83.9466 314.621 83.9466H306.41C304.593 83.9466 302.886 84.3379 301.667 85.31ZM271.192 26.0627H274.966C275.24 26.0627 275.462 26.2917 275.462 26.5727V33.0021C275.462 33.2604 275.775 33.3768 275.937 33.1811L281.67 26.2437C281.763 26.1292 281.903 26.0627 282.047 26.0627H286.57C286.998 26.0627 287.16 26.452 286.849 26.8204L280.294 34.5135L280.97 34.5091C281.137 34.5091 281.295 34.5967 281.389 34.7423L287.391 44.2337C287.606 44.5749 287.711 45.0225 287.169 45.0225H282.259C282.083 45.0225 281.921 44.929 281.832 44.7749L277.599 38.1372C277.519 38.004 277.336 37.9852 277.233 38.1018L275.59 40.0188C275.507 40.1125 275.462 40.2332 275.462 40.3601V44.5125C275.462 44.7937 275.24 45.0225 274.966 45.0225H271.192C270.92 45.0225 270.696 44.7937 270.696 44.5125V26.5727C270.696 26.2917 270.92 26.0627 271.192 26.0627ZM157.553 83.9199H153.782C153.507 83.9199 153.286 84.1489 153.286 84.4298V102.37C153.286 102.651 153.507 102.88 153.782 102.88H157.553C157.826 102.88 158.049 102.651 158.049 102.37V98.2172C158.049 98.0904 158.096 97.9695 158.179 97.876L159.821 95.9589C159.924 95.8424 160.107 95.8611 160.186 95.9944L164.422 102.632C164.511 102.786 164.672 102.88 164.848 102.88H169.757C170.298 102.88 170.195 102.43 169.978 102.091L163.976 92.5994C163.883 92.4538 163.725 92.3663 163.557 92.3663L162.882 92.3704L169.439 84.6776C169.749 84.3091 169.587 83.9199 169.159 83.9199H164.635C164.491 83.9199 164.353 83.9864 164.258 84.1009L158.525 91.0383C158.363 91.2339 158.049 91.1173 158.049 90.8593V84.4298C158.049 84.1489 157.826 83.9199 157.553 83.9199ZM202.171 37.6181C201.737 37.4497 201.141 37.3393 200.409 37.3393H199.027V41.0401H200.79C201.413 41.0401 202.009 40.9569 202.443 40.7071C202.905 40.4282 203.202 39.9557 203.202 39.1772C203.202 38.4529 202.905 37.9242 202.171 37.6181ZM240.893 30.3571C241.459 30.3571 242.031 30.4696 242.49 30.7754C243.059 31.1377 243.441 31.8037 243.441 32.8901C243.441 34.0037 243.059 34.6719 242.463 35.0321C242.031 35.3109 241.459 35.4213 240.89 35.4213H237.885V30.3571H240.893ZM297.503 31.9107L295.795 37.6721H299.155L297.503 31.9107ZM314.038 30.6956C314.47 30.3605 315.064 30.2232 315.635 30.2232H319.238V34.7295H315.688C315.119 34.7295 314.55 34.5921 314.118 34.3132C313.603 33.9509 313.277 33.3391 313.277 32.4773C313.277 31.6428 313.546 31.0579 314.038 30.6956ZM235.962 59.713C235.505 59.4069 234.934 59.2947 234.365 59.2947H231.357V64.3587H234.365C234.934 64.3587 235.505 64.2485 235.937 63.9695C236.531 63.6095 236.911 62.9413 236.911 61.8277C236.911 60.7411 236.531 60.0751 235.962 59.713ZM274.438 59.2947C275.007 59.2947 275.574 59.4069 276.033 59.713C276.605 60.0751 276.984 60.7411 276.984 61.8277C276.984 62.9413 276.605 63.6095 276.008 63.9695C275.574 64.2485 275.007 64.3587 274.438 64.3587H271.43V59.2947H274.438ZM321.997 59.3215C319.123 59.3215 317.062 61.4924 317.062 64.4979C317.062 67.5036 319.123 69.6453 321.997 69.6453C324.87 69.6453 326.902 67.5036 326.904 64.4979C326.904 61.4924 324.87 59.3215 321.997 59.3215ZM374.938 66.6097L376.648 60.8481L378.298 66.6097H374.938ZM394.778 59.1519C394.209 59.1519 393.613 59.2892 393.181 59.6243C392.691 59.9864 392.419 60.5713 392.419 61.406C392.419 62.2677 392.746 62.8796 393.261 63.2417C393.695 63.5208 394.262 63.6581 394.831 63.6581H398.383V59.1519H394.778ZM175.891 93.462C175.891 90.4565 177.951 88.2856 180.823 88.2856C183.697 88.2856 185.728 90.4565 185.728 93.462C185.728 96.4677 183.695 98.6095 180.823 98.6095C177.951 98.6095 175.891 96.4677 175.891 93.462ZM246.289 89.7857L244.579 95.5471H247.942L246.289 89.7857ZM305.144 88.5617C305.576 88.2266 306.173 88.0892 306.744 88.0892H310.346V92.5955H306.794C306.227 92.5955 305.656 92.4581 305.226 92.1793C304.71 91.8172 304.383 91.2051 304.383 90.3434C304.383 89.5089 304.653 88.924 305.144 88.5617Z" fill="white"/>
</g>
<defs>
<clipPath id="clip0_278_202">
<rect width="404.571" height="128" fill="white" transform="translate(0.714294 0.5)"/>
</clipPath>
</defs>
</svg>
