<svg width="253" height="80" viewBox="0 0 253 80" fill="none" xmlns="http://www.w3.org/2000/svg">
<g clip-path="url(#clip0_334_536)">
<path fill-rule="evenodd" clip-rule="evenodd" d="M4.23917 54.4944C16.2874 74.5634 40.0467 72.2531 50.8547 60.3121C50.9143 60.2457 50.9143 59.8399 50.6786 59.8984C39.5007 62.6927 29.3757 59.5849 22.5318 53.1037C7.79661 39.1451 9.36249 18.9603 20.7898 6.78249C22.8106 4.62819 25.4774 2.94741 27.896 1.42796C28.2164 1.22892 27.9858 0.729372 27.6261 0.834745C7.18977 6.86704 -7.657 34.6791 4.23917 54.4944Z" fill="#0078A8"/>
<path fill-rule="evenodd" clip-rule="evenodd" d="M44.9243 0.0122255C21.9744 0.692599 12.0445 22.9744 16.7104 38.5567C16.7358 38.6426 17.0791 38.8456 17.1463 38.6074C20.3807 27.2701 28.0618 19.8199 36.9504 16.9747C56.0907 10.8488 72.3323 22.3357 76.8893 38.5853C77.6951 41.4617 77.7813 44.671 77.8508 47.5824C77.861 47.9661 78.397 48.0117 78.4856 47.6397C83.6166 26.4491 67.5853 -0.659041 44.9243 0.0122255Z" fill="#EF4056"/>
<path fill-rule="evenodd" clip-rule="evenodd" d="M70.5175 63.4989C81.4192 42.7494 67.5924 22.7766 52.1159 19.1367C52.0309 19.1159 51.6889 19.3202 51.8575 19.4996C59.8009 28.0427 62.2435 38.6009 60.1986 47.927C55.7949 68.0117 37.9875 76.7096 22.0029 72.6377C19.1741 71.917 16.4248 70.3872 13.9341 68.9952C13.606 68.8117 13.2994 69.2644 13.568 69.5312C28.8746 84.688 59.7541 83.9855 70.5175 63.4989Z" fill="#FFD530"/>
<path fill-rule="evenodd" clip-rule="evenodd" d="M156.277 21.7387C156.277 18.1911 158.936 15.4072 162.526 15.4072C164.793 15.4072 166.259 16.3517 167.297 17.6981C167.417 17.8515 167.384 18.0792 167.231 18.1989L165.364 19.6871C165.217 19.8029 165.011 19.7769 164.887 19.6351C164.256 18.9197 163.51 18.4864 162.491 18.4864C160.833 18.4864 159.664 19.9291 159.664 21.7387C159.663 23.5651 160.833 24.9909 162.491 24.9909C163.61 24.9909 164.311 24.5082 164.96 23.7602C165.081 23.6224 165.28 23.5951 165.427 23.7018L167.349 25.1067C167.509 25.2238 167.546 25.4579 167.424 25.6167C166.329 27.0464 164.85 28.0689 162.391 28.0689C159.003 28.0689 156.276 25.4085 156.277 21.7387ZM94.9219 21.7388C94.9219 18.1912 97.5823 15.4072 101.174 15.4072C103.44 15.4072 104.905 16.3518 105.944 17.6982C106.063 17.8517 106.031 18.0794 105.879 18.1991L104.009 19.6872C103.864 19.8031 103.657 19.7771 103.532 19.6352C102.901 18.9198 102.156 18.4865 101.139 18.4865C99.4802 18.4865 98.3109 19.9292 98.3109 21.7388C98.3109 23.5652 99.4802 24.9911 101.139 24.9911C102.256 24.9911 102.959 24.5084 103.608 23.7604C103.728 23.6225 103.927 23.5952 104.075 23.7018L105.995 25.1068C106.155 25.2239 106.192 25.4581 106.072 25.6168C104.976 27.0465 103.497 28.0689 101.036 28.0689C97.6483 28.0689 94.9219 25.4087 94.9219 21.7388ZM115.143 21.4954L110.704 26.1397V27.5134C110.704 27.6877 110.569 27.8269 110.399 27.8269H108.028C107.859 27.8269 107.723 27.6877 107.723 27.5134L107.724 16.2957C107.724 16.1214 107.859 15.9822 108.029 15.9822H110.399C110.569 15.9822 110.704 16.1214 110.704 16.2957V22.3827L115.143 17.7567V16.2957C115.143 16.1214 115.277 15.9822 115.447 15.9822H117.817C117.987 15.9822 118.124 16.1214 118.124 16.2957V27.5134C118.124 27.6877 117.987 27.8269 117.817 27.8269H115.446C115.277 27.8269 115.142 27.6877 115.142 27.5134L115.143 21.4954ZM128.712 16.2957C128.712 16.1212 128.577 15.9821 128.406 15.9821H121.275C121.105 15.9821 120.971 16.1212 120.971 16.2957V27.5147C120.971 27.6877 121.105 27.8268 121.275 27.8268H125.339C126.206 27.8268 127.136 27.6707 127.9 27.2531C128.88 26.7314 129.609 25.7571 129.609 24.1752C129.609 22.4528 128.864 21.5474 127.9 21.0777C126.984 20.6262 125.884 20.5742 125.054 20.5742H123.952V18.6958H128.406C128.577 18.6958 128.712 18.5565 128.712 18.3822V16.2957ZM139.432 21.4954L134.994 26.1395V27.5132C134.994 27.6877 134.859 27.8268 134.689 27.8268H132.317C132.148 27.8268 132.015 27.6877 132.015 27.5132V16.2957C132.015 16.1212 132.149 15.9821 132.319 15.9821H134.689C134.859 15.9821 134.994 16.1212 134.994 16.2957V22.3825L139.432 17.7565V16.2957C139.432 16.1212 139.568 15.9821 139.738 15.9821H142.108C142.278 15.9821 142.414 16.1212 142.414 16.2957V27.5132C142.414 27.6877 142.278 27.8268 142.108 27.8268H139.736C139.568 27.8268 139.432 27.6877 139.432 27.5132V21.4954ZM153.299 16.9044C152.453 16.1734 151.434 15.9821 150.487 15.9821H145.557C145.389 15.9821 145.251 16.1212 145.251 16.2957V27.5147C145.251 27.6877 145.389 27.8268 145.557 27.8268H147.927C148.097 27.8268 148.233 27.6877 148.233 27.5147V24.5057H150.57C151.467 24.5057 152.364 24.3312 153.18 23.6704C154.127 22.9224 154.737 21.7048 154.737 20.2438C154.737 18.8349 154.177 17.6524 153.299 16.9044ZM182.664 27.8287C182.936 27.8287 183.104 27.7245 183.173 27.4812L183.697 25.6887H187.237L187.746 27.4812C187.813 27.7245 187.983 27.8287 188.254 27.8287H190.66C190.863 27.8287 190.93 27.7245 190.93 27.5854C190.93 27.5274 190.919 27.4805 190.904 27.4261L190.897 27.3941L187.256 16.2454C187.187 16.0189 187.036 15.9318 186.78 15.9318H184.273C184.02 15.9318 183.867 16.0189 183.8 16.2454L180.089 27.3941L180.081 27.4261C180.067 27.4805 180.056 27.5274 180.056 27.5854C180.056 27.7245 180.123 27.8287 180.327 27.8287H182.664ZM192.316 19.9485C192.316 18.6958 192.79 17.5301 193.654 16.8342C194.416 16.2267 195.483 15.9821 196.617 15.9821H201.75C201.92 15.9821 202.056 16.1212 202.056 16.2957V27.5147C202.056 27.6889 201.919 27.8268 201.75 27.8268H199.379C199.209 27.8268 199.073 27.6889 199.073 27.5147V23.9657H197.26L195.45 27.5147C195.313 27.7748 195.143 27.8268 194.874 27.8268H192.263C192.094 27.8268 191.993 27.7409 191.993 27.5848C191.993 27.4964 192.026 27.3924 192.094 27.2701L194.28 23.3751C194.043 23.2359 193.806 23.0798 193.586 22.8704C192.67 22.0352 192.316 20.9918 192.316 19.9485ZM95.3572 45.5992C95.3572 45.7735 95.4927 45.9128 95.6624 45.9128H98.0342C98.2039 45.9128 98.3395 45.7735 98.3395 45.5992V36.7817H102.794C102.964 36.7817 103.099 36.6425 103.099 36.4682V34.3815C103.099 34.2072 102.964 34.0679 102.794 34.0679H95.6624C95.494 34.0679 95.3585 34.2072 95.3585 34.3815L95.3572 45.5992ZM113.907 34.0679C114.077 34.0679 114.213 34.2072 114.213 34.3815V36.4682C114.213 36.6425 114.077 36.7817 113.907 36.7817H108.285V38.5899H113.009C113.179 38.5899 113.314 38.7305 113.314 38.9035L113.313 40.9914C113.313 41.1645 113.179 41.3037 113.009 41.3037H108.285V43.1991H113.907C114.076 43.1991 114.211 43.3395 114.211 43.5127V45.6005C114.211 45.7735 114.076 45.9128 113.907 45.9128H105.607C105.437 45.9128 105.301 45.7735 105.301 45.6005L105.303 34.3815C105.303 34.2072 105.438 34.0679 105.607 34.0679H113.907ZM127.001 34.3815C127.001 34.2072 126.867 34.0679 126.697 34.0679H124.325C124.155 34.0679 124.021 34.2072 124.021 34.3815V38.5899H119.615V34.3815C119.615 34.2072 119.481 34.0679 119.312 34.0679H116.94C116.771 34.0679 116.635 34.2072 116.635 34.3815V45.6005C116.635 45.7735 116.771 45.9128 116.939 45.9128H119.311C119.481 45.9128 119.615 45.7735 119.615 45.6005V41.3037H124.02V45.6005C124.02 45.7735 124.155 45.9128 124.325 45.9128H126.697C126.865 45.9128 127 45.7735 127 45.6005L127.001 34.3815ZM138.443 34.0679C138.613 34.0679 138.748 34.2072 138.748 34.3815V36.4682C138.748 36.6425 138.613 36.7817 138.443 36.7817H132.82V38.5899H137.546C137.714 38.5899 137.85 38.7305 137.85 38.9035V40.9914C137.85 41.1645 137.714 41.3037 137.545 41.3037H132.82V43.1991H138.443C138.611 43.1991 138.747 43.3395 138.747 43.5127V45.6005C138.747 45.7735 138.611 45.9128 138.443 45.9128H130.142C129.972 45.9128 129.838 45.7735 129.838 45.6005V34.3815C129.838 34.2072 129.974 34.0679 130.143 34.0679H138.443ZM149.219 34.9904C148.373 34.2592 147.354 34.0679 146.407 34.0679H141.477C141.309 34.0679 141.172 34.2072 141.172 34.3815V45.6005C141.172 45.7735 141.309 45.9128 141.477 45.9128H143.847C144.017 45.9128 144.154 45.7735 144.154 45.6005V42.5915H146.49C147.389 42.5915 148.286 42.4172 149.099 41.7564C150.047 41.0084 150.659 39.7907 150.659 38.3298C150.659 36.9209 150.099 35.7384 149.219 34.9904ZM160.394 39.5804L155.956 44.2247V45.5984C155.956 45.7727 155.82 45.9119 155.65 45.9119H153.279C153.109 45.9119 152.974 45.7727 152.974 45.5984V34.3807C152.974 34.2064 153.11 34.0671 153.28 34.0671H155.65C155.82 34.0671 155.956 34.2064 155.956 34.3807V40.4677L160.394 35.8417V34.3807C160.394 34.2064 160.529 34.0671 160.697 34.0671H163.069C163.239 34.0671 163.376 34.2064 163.376 34.3807L163.374 45.5984C163.374 45.7727 163.239 45.9119 163.069 45.9119H160.697C160.529 45.9119 160.393 45.7727 160.393 45.5984L160.394 39.5804ZM174.263 34.9904C173.416 34.2592 172.399 34.0679 171.451 34.0679H166.521C166.351 34.0679 166.217 34.2072 166.217 34.3815V45.6005C166.217 45.7735 166.351 45.9128 166.521 45.9128H168.891C169.061 45.9128 169.197 45.7735 169.197 45.6005V42.5915H171.534C172.433 42.5915 173.33 42.4172 174.143 41.7564C175.093 41.0084 175.703 39.7907 175.703 38.3298C175.703 36.9209 175.143 35.7384 174.263 34.9904ZM179.126 43.2875C179.633 43.2875 180.023 43.2524 180.361 43.1132C180.631 43.0091 180.853 42.8531 181.073 42.6267L177.009 34.5038C176.924 34.3295 176.94 34.0679 177.246 34.0679H179.906C180.176 34.0679 180.327 34.2254 180.414 34.4167L182.599 39.4954L184.479 34.4167C184.563 34.2085 184.714 34.0679 184.986 34.0679H187.51C187.814 34.0679 187.833 34.3295 187.749 34.5038L184.46 42.3314C184.037 43.3395 183.529 44.0707 182.936 44.6261C181.92 45.5837 180.683 45.9141 179.464 45.9141H178.413C178.244 45.9141 178.11 45.7748 178.11 45.6005V43.6011C178.11 43.4267 178.244 43.2875 178.413 43.2875H179.126ZM194.669 41.3049C195.261 44.2268 197.853 46.0702 200.8 46.0702C204.137 46.0702 207.034 43.7221 207.034 40.0002C207.034 36.2952 204.139 33.8951 200.8 33.8951C197.887 33.8951 195.33 35.7045 194.686 38.5912H192.55V34.3828C192.55 34.2085 192.417 34.0681 192.247 34.0681H189.876C189.706 34.0681 189.57 34.2085 189.57 34.3828V45.6005C189.57 45.7749 189.706 45.9141 189.876 45.9141H192.246C192.416 45.9141 192.55 45.7749 192.55 45.6005V41.3049H194.669ZM209.42 45.6005V34.3815C209.42 34.2085 209.556 34.0679 209.724 34.0679H212.097C212.266 34.0679 212.401 34.2085 212.401 34.3815V43.2004H216.027V34.3815C216.027 34.2085 216.161 34.0679 216.33 34.0679H218.703C218.873 34.0679 219.007 34.2085 219.007 34.3815L219.006 43.2004H222.633V34.3815C222.633 34.2085 222.767 34.0679 222.939 34.0679H225.307C225.479 34.0679 225.613 34.2085 225.613 34.3815V43.2004H228.223C228.391 43.2004 228.526 43.3395 228.526 43.5125V48.2791C228.526 48.4534 228.391 48.5914 228.223 48.5914H225.851C225.681 48.5914 225.546 48.4534 225.546 48.2791V45.9141H209.724C209.556 45.9141 209.42 45.7748 209.42 45.6005ZM232.129 45.9089C232.4 45.9089 232.567 45.8049 232.637 45.5617L233.161 43.7689H236.701L237.209 45.5617C237.277 45.8049 237.447 45.9089 237.719 45.9089H240.124C240.326 45.9089 240.394 45.8049 240.394 45.6657C240.394 45.6134 240.384 45.5708 240.371 45.5227L240.367 45.5039L240.361 45.4745L236.72 34.3257C236.651 34.0994 236.5 34.0122 236.244 34.0122H233.737C233.484 34.0122 233.331 34.0994 233.264 34.3257L229.551 45.4745C229.549 45.4894 229.546 45.5035 229.541 45.5171C229.53 45.5677 229.52 45.6114 229.52 45.6657C229.52 45.8049 229.587 45.9089 229.791 45.9089H232.129ZM241.78 38.0345C241.78 36.7817 242.253 35.6161 243.117 34.9201C243.88 34.3125 244.947 34.0679 246.081 34.0679H251.214C251.384 34.0679 251.52 34.2072 251.52 34.3815V45.6005C251.52 45.7748 251.383 45.9128 251.214 45.9128H248.843C248.673 45.9128 248.537 45.7748 248.537 45.6005V42.0517H246.724L244.913 45.6005C244.777 45.8607 244.607 45.9128 244.337 45.9128H241.727C241.559 45.9128 241.457 45.8269 241.457 45.6695C241.457 45.5824 241.49 45.4782 241.559 45.3572L243.743 41.4611C243.506 41.3218 243.27 41.1658 243.05 40.9564C242.136 40.1211 241.78 39.0778 241.78 38.0345ZM106.317 58.1028C106.317 61.7727 109.214 64.1729 112.567 64.1729C115.904 64.1729 118.8 61.8248 118.801 58.1028C118.801 54.3978 115.904 51.9977 112.567 51.9977C109.214 51.9977 106.317 54.3978 106.317 58.1028ZM133.295 63.6865C133.295 63.8608 133.159 63.9999 132.989 63.9999H130.72C130.55 63.9999 130.415 63.8608 130.415 63.6865L130.416 57.4772L128.636 60.8687C128.517 61.0769 128.416 61.1822 128.161 61.1822H126.417C126.164 61.1822 126.062 61.0769 125.943 60.8687L124.064 57.4772L124.063 63.6865C124.063 63.8608 123.927 63.9999 123.759 63.9999H121.488C121.319 63.9999 121.183 63.8608 121.183 63.6865V52.4675C121.183 52.2945 121.32 52.1539 121.49 52.1539H123.876C124.115 52.1539 124.267 52.1891 124.42 52.4675L127.231 57.6515L130.042 52.4675C130.196 52.1891 130.348 52.1539 130.585 52.1539H132.991C133.16 52.1539 133.295 52.2945 133.295 52.4675V63.6865ZM143.257 63.6852C143.257 63.8595 143.393 63.9987 143.561 63.9987H145.933C146.104 63.9987 146.237 63.8595 146.237 63.6852L146.239 52.4675C146.239 52.2931 146.104 52.1539 145.933 52.1539H136.449C136.278 52.1539 136.145 52.2931 136.145 52.4675L136.144 63.6852C136.144 63.8595 136.278 63.9987 136.449 63.9987H138.82C138.989 63.9987 139.124 63.8595 139.124 63.6852V54.8677H143.259L143.257 63.6852ZM151.161 63.6489C151.094 63.8922 150.926 63.9964 150.656 63.9964H148.317C148.113 63.9964 148.046 63.8922 148.046 63.7531C148.046 63.6964 148.057 63.6512 148.07 63.5979L148.079 63.5618L151.789 52.4131C151.856 52.1867 152.01 52.0995 152.263 52.0995H154.771C155.024 52.0995 155.177 52.1867 155.247 52.4131L158.886 63.5618L158.896 63.5979C158.909 63.6512 158.919 63.6964 158.919 63.7531C158.919 63.8922 158.851 63.9964 158.65 63.9964H156.243C155.973 63.9964 155.803 63.8922 155.736 63.6489L155.227 61.8564H151.687L151.161 63.6489ZM171.097 52.4675C171.097 52.2931 170.961 52.1539 170.791 52.1539H168.42C168.25 52.1539 168.116 52.2931 168.116 52.4675V56.6759H163.711V52.4675C163.711 52.2931 163.577 52.1539 163.407 52.1539H161.036C160.866 52.1539 160.731 52.2931 160.731 52.4675V63.6865C160.731 63.8595 160.866 63.9987 161.034 63.9987H163.406C163.576 63.9987 163.711 63.8595 163.711 63.6865V59.3895H168.114V63.6865C168.114 63.8595 168.25 63.9987 168.42 63.9987H170.791C170.96 63.9987 171.096 63.8595 171.096 63.6865L171.097 52.4675ZM181.357 57.6672L176.92 62.3114V63.6852C176.92 63.8595 176.784 63.9987 176.614 63.9987H174.243C174.073 63.9987 173.94 63.8595 173.94 63.6852V52.4675C173.94 52.2931 174.074 52.1539 174.244 52.1539H176.614C176.784 52.1539 176.92 52.2931 176.92 52.4675V58.5544L181.357 53.9284V52.4675C181.357 52.2931 181.493 52.1539 181.663 52.1539H184.033C184.203 52.1539 184.34 52.2931 184.34 52.4675V63.6852C184.34 63.8595 184.203 63.9987 184.033 63.9987H181.661C181.493 63.9987 181.357 63.8595 181.357 63.6852V57.6672ZM188.096 53.0061C187.231 53.7021 186.757 54.8677 186.757 56.1204C186.757 57.1638 187.113 58.2071 188.029 59.0422C188.249 59.2517 188.486 59.4078 188.723 59.5469L186.537 63.4432C186.47 63.5642 186.434 63.6682 186.434 63.7567C186.434 63.9128 186.537 63.9987 186.706 63.9987H189.316C189.584 63.9987 189.754 63.9467 189.891 63.6865L191.703 60.1377H193.514V63.6865C193.514 63.8608 193.65 63.9987 193.82 63.9987H196.191C196.36 63.9987 196.497 63.8608 196.497 63.6865V52.4675C196.497 52.2931 196.361 52.1539 196.191 52.1539H191.06C189.924 52.1539 188.857 52.3985 188.096 53.0061ZM169.049 15.9765H171.407C171.579 15.9765 171.717 16.1197 171.717 16.2952V20.3137C171.717 20.4751 171.913 20.5478 172.014 20.4255L175.597 16.0897C175.656 16.0181 175.743 15.9765 175.833 15.9765H178.66C178.927 15.9765 179.029 16.2198 178.834 16.4501L174.737 21.2582L175.16 21.2555C175.264 21.2555 175.363 21.3102 175.421 21.4012L179.173 27.3334C179.307 27.5467 179.373 27.8264 179.034 27.8264H175.966C175.856 27.8264 175.754 27.7679 175.699 27.6717L173.053 23.5231C173.003 23.4398 172.889 23.4281 172.824 23.5009L171.797 24.6991C171.746 24.7577 171.717 24.8331 171.717 24.9124V27.5077C171.717 27.6834 171.579 27.8264 171.407 27.8264H169.049C168.879 27.8264 168.739 27.6834 168.739 27.5077V16.2952C168.739 16.1197 168.879 15.9765 169.049 15.9765ZM98.024 52.1372H95.6676C95.4953 52.1372 95.3572 52.2804 95.3572 52.4559V63.6684C95.3572 63.8441 95.4953 63.9871 95.6676 63.9871H98.024C98.195 63.9871 98.3343 63.8441 98.3343 63.6684V61.0731C98.3343 60.9938 98.3635 60.9182 98.4155 60.8598L99.4416 59.6617C99.5063 59.5888 99.6203 59.6005 99.6697 59.6838L102.317 63.8324C102.373 63.9285 102.473 63.9871 102.584 63.9871H105.652C105.99 63.9871 105.926 63.7061 105.79 63.4941L102.039 57.5619C101.98 57.4709 101.882 57.4162 101.776 57.4162L101.355 57.4188L105.453 52.6108C105.647 52.3805 105.545 52.1372 105.278 52.1372H102.45C102.361 52.1372 102.274 52.1788 102.215 52.2504L98.632 56.5862C98.5307 56.7085 98.3343 56.6357 98.3343 56.4744V52.4559C98.3343 52.2804 98.195 52.1372 98.024 52.1372ZM125.91 23.1987C125.639 23.0934 125.267 23.0244 124.809 23.0244H123.945V25.3374H125.048C125.436 25.3374 125.809 25.2854 126.08 25.1292C126.369 24.9549 126.555 24.6597 126.555 24.1731C126.555 23.7204 126.369 23.3899 125.91 23.1987ZM150.111 18.6605C150.466 18.6605 150.823 18.7308 151.11 18.9219C151.466 19.1484 151.704 19.5647 151.704 20.2437C151.704 20.9397 151.466 21.3572 151.093 21.5824C150.823 21.7567 150.466 21.8257 150.11 21.8257H148.231V18.6605H150.111ZM185.493 19.6315L184.426 23.2324H186.526L185.493 19.6315ZM195.827 18.8721C196.097 18.6627 196.469 18.5768 196.826 18.5768H199.077V21.3932H196.859C196.503 21.3932 196.147 21.3074 195.877 21.1331C195.556 20.9067 195.351 20.5242 195.351 19.9857C195.351 19.4641 195.52 19.0985 195.827 18.8721ZM147.03 37.0079C146.744 36.8167 146.387 36.7465 146.031 36.7465H144.151V39.9115H146.031C146.387 39.9115 146.744 39.8427 147.014 39.6682C147.386 39.4432 147.623 39.0257 147.623 38.3297C147.623 37.6505 147.386 37.2342 147.03 37.0079ZM171.077 36.7465C171.433 36.7465 171.787 36.8167 172.074 37.0079C172.431 37.2342 172.669 37.6505 172.669 38.3297C172.669 39.0257 172.431 39.4432 172.059 39.6682C171.787 39.8427 171.433 39.9115 171.077 39.9115H169.197V36.7465H171.077ZM200.801 36.7632C199.006 36.7632 197.717 38.1201 197.717 39.9985C197.717 41.8771 199.006 43.2157 200.801 43.2157C202.597 43.2157 203.867 41.8771 203.869 39.9985C203.869 38.1201 202.597 36.7632 200.801 36.7632ZM233.89 41.3184L234.959 37.7174L235.99 41.3184H233.89ZM246.29 36.6572C245.934 36.6572 245.561 36.7431 245.291 36.9525C244.986 37.1788 244.816 37.5444 244.816 38.0661C244.816 38.6047 245.02 38.9871 245.341 39.2134C245.613 39.3878 245.967 39.4737 246.323 39.4737H248.543V36.6572H246.29ZM109.486 58.1011C109.486 56.2227 110.773 54.8658 112.568 54.8658C114.364 54.8658 115.634 56.2227 115.634 58.1011C115.634 59.9797 114.363 61.3182 112.568 61.3182C110.773 61.3182 109.486 59.9797 109.486 58.1011ZM153.484 55.8034L152.416 59.4042H154.517L153.484 55.8034ZM190.269 55.0384C190.539 54.8289 190.911 54.7431 191.269 54.7431H193.52V57.5595H191.3C190.946 57.5595 190.589 57.4737 190.32 57.2994C189.997 57.0731 189.793 56.6905 189.793 56.1519C189.793 55.6304 189.961 55.2648 190.269 55.0384Z" fill="#231F21"/>
</g>
<defs>
<clipPath id="clip0_334_536">
<rect width="252.857" height="80" fill="white"/>
</clipPath>
</defs>
</svg>
