<svg width="57" height="64" viewBox="0 0 57 64" fill="none" xmlns="http://www.w3.org/2000/svg">
<path d="M32.2852 0.215178C32.0505 0.328202 31.4853 0.632496 31.0419 0.902013C23.9476 5.22298 19.9917 10.7264 18.7746 18.0033C18.4877 19.69 18.392 21.3419 18.4442 23.4284C18.5485 27.2799 19.0615 29.8621 20.922 35.8523C22.1479 39.7908 22.9738 43.5205 23.4085 47.0416C23.7041 49.4499 23.765 50.4758 23.765 53.4318C23.765 57.092 23.6172 58.3266 22.7999 61.5782C22.4696 62.9084 22.4435 63.1953 22.6347 63.5604C23.0781 64.4212 24.2171 64.056 27.1557 62.1259C28.7815 61.0565 30.0508 60.0132 31.5027 58.5613C33.5806 56.4834 34.8239 54.762 36.0237 52.3016C37.8233 48.6153 38.6058 44.8681 38.4754 40.608C38.3624 36.8956 37.8668 34.4091 35.9541 27.9146C34.4935 22.959 33.9892 20.8028 33.598 17.8903C33.1981 14.9256 33.1546 14.2562 33.1546 10.9176C33.1633 7.36173 33.2763 6.0837 33.8154 3.52763C34.3283 1.11067 34.337 0.702048 33.8501 0.215178C33.5632 -0.0717272 32.8851 -0.0717272 32.2852 0.215178Z" fill="#E44918"/>
<path d="M10.6803 5.29252C9.51531 5.762 6.88099 7.64862 5.42908 9.04837C1.89927 12.4565 0.169143 16.4992 0.0126494 21.6983C-0.0829858 24.9325 0.35172 27.5233 1.72539 31.9139C3.34249 37.0869 3.95977 40.6167 4.04672 45.1724C4.09019 47.1546 4.0641 47.8241 3.95108 48.7804C3.80328 49.9541 3.4816 51.5799 3.24686 52.3798C3.0382 53.0753 3.07298 53.5187 3.35988 53.7361C3.81197 54.1012 4.52489 53.8404 6.42021 52.5972C10.3326 50.0411 12.8625 46.9199 14.2275 42.9554C15.5142 39.1995 15.5925 35.2263 14.4623 30.5663C14.3058 29.8968 13.8363 28.2102 13.4277 26.8104C12.1322 22.3938 11.7932 20.9158 11.4628 18.3598C10.9498 14.2388 11.0455 10.8915 11.7758 7.47474C12.1148 5.89241 12.0018 5.30121 11.3324 5.1795C11.1846 5.15341 10.9064 5.20558 10.6803 5.29252Z" fill="#E44918"/>
<path d="M52.4816 5.25771C51.6295 5.562 49.5777 6.90959 48.1606 8.0746C42.8659 12.4564 40.7271 18.8988 42.0226 26.567C42.2834 28.0884 42.6659 29.5664 43.4571 32.1312C44.8742 36.7043 45.5089 40.1385 45.7349 44.4073C45.874 47.2068 45.6654 49.4586 45.0133 51.9798C44.7003 53.2057 44.7003 53.4144 44.9872 53.71C45.1872 53.9012 45.2568 53.9273 45.6045 53.8752C46.3522 53.7795 48.4823 52.4667 50.2124 51.0496C54.3595 47.6589 56.7069 42.8945 56.9069 37.4346C57.0199 34.3221 56.5939 31.8617 54.9942 26.4366C53.8726 22.6285 53.5162 21.1505 53.2032 18.8727C52.8989 16.647 52.8206 15.282 52.8728 12.8129C52.9163 10.3959 53.0554 9.09181 53.4466 7.43993C53.6987 6.40533 53.69 5.73589 53.4379 5.44898C53.1858 5.17077 52.8902 5.10991 52.4816 5.25771Z" fill="#E44918"/>
</svg>
